mawkin_sans.ufo
<glyph name="hyphen.inv" format="2">
  <advance width="200.0"/>
  <unicode hex="002D"/>
  <outline>
    <contour>
      <point x="100.0" y="217" type="move"/>
      <point x="-25.0" y="433" type="line"/>
      <point x="225.0" y="433" type="line"/>
    </contour>
  </outline>
</glyph>
<glyph name="period" format="2">
  <advance width="1000"/>
  <unicode hex="002E"/>
  <outline>
    <contour>
      <point x="500" y="433" type="line"/>
      <point x="375" y="217" type="line"/>
      <point x="625" y="217" type="line"/>
    </contour>
  </outline>
</glyph>
<glyph name="period.inv" format="2">
  <advance width="200"/>
  <unicode hex="002E"/>
  <outline>
    <contour>
      <point x="100" y="217" type="move"/>
      <point x="-25" y="433" type="line"/>
      <point x="225" y="433" type="line"/>
    </contour>
  </outline>
</glyph>
<glyph name="one.inv" format="2">
  <advance width="1000"/>
  <unicode hex="0031"/>
  <outline>
    <contour>
      <point x="500" y="866" type="line"/>
      <point x="0" y="0" type="line"/>
      <point x="1000" y="0" type="line"/>
    </contour>
    <contour>
      <point x="500" y="650" type="line"/>
      <point x="812" y="108" type="line"/>
      <point x="188" y="108" type="line"/>
    </contour>
  </outline>
</glyph>
<glyph name="two" format="2">
  <advance width="1000"/>
  <unicode hex="0032"/>
  <outline>
    <contour>
      <point x="500" y="0" type="line"/>
      <point x="0" y="866" type="line"/>
      <point x="1000" y="866" type="line"/>
    </contour>
    <contour>
      <point x="500" y="216" type="line"/>
      <point x="812" y="758" type="line"/>
      <point x="188" y="758" type="line"/>
    </contour>
    <contour>
      <point x="281" y="920" type="line"/>
      <point x="312" y="974" type="line"/>
      <point x="688" y="974" type="line"/>
      <point x="719" y="920" type="line"/>
    </contour>
  </outline>
</glyph>
<glyph name="three.inv" format="2">
  <advance width="1000"/>
  <unicode hex="0033"/>
  <outline>
    <contour>
      <point x="500" y="866" type="line"/>
      <point x="0" y="0" type="line"/>
      <point x="1000" y="0" type="line"/>
    </contour>
    <contour>
      <point x="500" y="650" type="line"/>
      <point x="812" y="108" type="line"/>
      <point x="188" y="108" type="line"/>
    </contour>
    <contour>
      <point x="162" y="704" type="line"/>
      <point x="162" y="389" type="line"/>
      <point x="344" y="704" type="line"/>
    </contour>
    <contour>
      <point x="838" y="704" type="line"/>
      <point x="838" y="389" type="line"/>
      <point x="656" y="704" type="line"/>
    </contour>
    <contour>
      <point x="281" y="-54" type="line"/>
      <point x="312" y="-108" type="line"/>
      <point x="688" y="-108" type="line"/>
      <point x="719" y="-54" type="line"/>
    </contour>
  </outline>
</glyph>
<glyph name="five" format="2">
  <advance width="1000"/>
  <unicode hex="0035"/>
  <outline>
    <contour>
      <point x="500" y="0" type="line"/>
      <point x="0" y="866" type="line"/>
      <point x="1000" y="866" type="line"/>
    </contour>
    <contour>
      <point x="500" y="216" type="line"/>
      <point x="812" y="758" type="line"/>
      <point x="188" y="758" type="line"/>
    </contour>
    <contour>
      <point x="0" y="0" type="line"/>
      <point x="0" y="758" type="line"/>
      <point x="108" y="570" type="line"/>
      <point x="108" y="108" type="line"/>
      <point x="375" y="108" type="line"/>
      <point x="437" y="0" type="line"/>
    </contour>
    <contour>
      <point x="162" y="162" type="line"/>
      <point x="162" y="477" type="line"/>
      <point x="344" y="162" type="line"/>
    </contour>
    <contour>
      <point x="1000" y="0" type="line"/>
      <point x="1000" y="758" type="line"/>
      <point x="892" y="570" type="line"/>
      <point x="892" y="108" type="line"/>
      <point x="625" y="108" type="line"/>
      <point x="563" y="0" type="line"/>
    </contour>
    <contour>
      <point x="838" y="162" type="line"/>
      <point x="838" y="477" type="line"/>
      <point x="656" y="162" type="line"/>
    </contour>
    <contour>
      <point x="281" y="920" type="line"/>
      <point x="312" y="974" type="line"/>
      <point x="688" y="974" type="line"/>
      <point x="719" y="920" type="line"/>
    </contour>
  </outline>
</glyph>
<glyph name="five.inv" format="2">
  <advance width="1000"/>
  <unicode hex="0035"/>
  <outline>
    <contour>
      <point x="500" y="866" type="line"/>
      <point x="0" y="0" type="line"/>
      <point x="1000" y="0" type="line"/>
    </contour>
    <contour>
      <point x="500" y="650" type="line"/>
      <point x="812" y="108" type="line"/>
      <point x="188" y="108" type="line"/>
    </contour>
    <contour>
      <point x="0" y="866" type="line"/>
      <point x="0" y="108" type="line"/>
      <point x="108" y="296" type="line"/>
      <point x="108" y="758" type="line"/>
      <point x="375" y="758" type="line"/>
      <point x="437" y="866" type="line"/>
    </contour>
    <contour>
      <point x="162" y="704" type="line"/>
      <point x="162" y="389" type="line"/>
      <point x="344" y="704" type="line"/>
    </contour>
    <contour>
      <point x="1000" y="866" type="line"/>
      <point x="1000" y="108" type="line"/>
      <point x="892" y="296" type="line"/>
      <point x="892" y="758" type="line"/>
      <point x="625" y="758" type="line"/>
      <point x="563" y="866" type="line"/>
    </contour>
    <contour>
      <point x="838" y="704" type="line"/>
      <point x="838" y="389" type="line"/>
      <point x="656" y="704" type="line"/>
    </contour>
    <contour>
      <point x="281" y="-54" type="line"/>
      <point x="312" y="-108" type="line"/>
      <point x="688" y="-108" type="line"/>
      <point x="719" y="-54" type="line"/>
    </contour>
  </outline>
</glyph>
<glyph name="A.inv" format="2">
  <advance width="200.0"/>
  <unicode hex="0041"/>
  <outline>
    <contour>
      <point x="-400.0" y="866.0" type="move"/>
      <point x="154.0" y="866.0" type="line"/>
      <point x="154.0" y="311.0" type="line"/>
      <point x="412.0" y="758.0" type="line"/>
      <point x="262.0" y="758.0" type="line"/>
      <point x="262.0" y="866.0" type="line"/>
      <point x="600.0" y="866.0" type="line"/>
      <point x="100.0" y="0.0" type="line"/>
      <point x="46.0" y="94.0" type="line"/>
      <point x="46.0" y="758.0" type="line"/>
      <point x="-212.0" y="758.0" type="line"/>
      <point x="-62.0" y="498.0" type="line"/>
      <point x="-62.0" y="281.0" type="line"/>
    </contour>
  </outline>
</glyph>
<glyph name="C" format="2">
  <advance width="1000"/>
  <unicode hex="0043"/>
  <outline>
    <contour>
      <point x="500" y="866" type="move"/>
      <point x="271" y="469" type="line"/>
      <point x="729" y="469" type="line"/>
    </contour>
    <contour>
      <point x="198" y="343" type="move"/>
      <point x="135" y="235" type="line"/>
      <point x="865" y="235" type="line"/>
      <point x="802" y="343" type="line"/>
    </contour>
    <contour>
      <point x="63" y="108" type="move"/>
      <point x="0" y="0" type="line"/>
      <point x="1000" y="0" type="line"/>
      <point x="937" y="108" type="line"/>
    </contour>
  </outline>
</glyph>
<glyph name="C.inv" format="2">
  <advance width="200"/>
  <unicode hex="0043"/>
  <outline>
    <contour>
      <point x="100" y="866" type="line"/>
      <point x="-129" y="469" type="line"/>
      <point x="329" y="469" type="line"/>
    </contour>
    <contour>
      <point x="-202" y="343" type="line"/>
      <point x="-265" y="235" type="line"/>
      <point x="465" y="235" type="line"/>
      <point x="402" y="343" type="line"/>
    </contour>
    <contour>
      <point x="-337" y="108" type="line"/>
      <point x="-400" y="0" type="line"/>
      <point x="600" y="0" type="line"/>
      <point x="537" y="108" type="line"/>
    </contour>
  </outline>
</glyph>
<glyph name="D" format="2">
  <advance width="1000.0"/>
  <unicode hex="0044"/>
  <outline>
    <contour>
      <point x="1000.0" y="0.0" type="move"/>
      <point x="446.0" y="0.0" type="line"/>
      <point x="446.0" y="556.0" type="line"/>
      <point x="188.0" y="108.0" type="line"/>
      <point x="338.0" y="108.0" type="line"/>
      <point x="338.0" y="0.0" type="line"/>
      <point x="0.0" y="0.0" type="line"/>
      <point x="500.0" y="866.0" type="line"/>
      <point x="554.0" y="772.0" type="line"/>
      <point x="554.0" y="108.0" type="line"/>
      <point x="812.0" y="108.0" type="line"/>
      <point x="662.0" y="368.0" type="line"/>
      <point x="662.0" y="585.0" type="line"/>
    </contour>
  </outline>
</glyph>
<glyph name="D.inv" format="2">
  <advance width="200"/>
  <unicode hex="0044"/>
  <outline>
    <contour>
      <point x="600" y="866" type="line"/>
      <point x="46" y="866" type="line"/>
      <point x="46" y="310" type="line"/>
      <point x="-212" y="758" type="line"/>
      <point x="-62" y="758" type="line"/>
      <point x="-62" y="866" type="line"/>
      <point x="-400" y="866" type="line"/>
      <point x="100" y="0" type="line"/>
      <point x="154" y="94" type="line"/>
      <point x="154" y="758" type="line"/>
      <point x="412" y="758" type="line"/>
      <point x="262" y="498" type="line"/>
      <point x="262" y="281" type="line"/>
    </contour>
  </outline>
</glyph>
<glyph name="E" format="2">
  <advance width="1000"/>
  <unicode hex="0045"/>
  <outline>
    <contour>
      <point x="338" y="281" type="line"/>
      <point x="0" y="866" type="line"/>
      <point x="338" y="866" type="line"/>
    </contour>
    <contour>
      <point x="500" y="0" type="line"/>
      <point x="446" y="94" type="line"/>
      <point x="446" y="866" type="line"/>
      <point x="554" y="866" type="line"/>
      <point x="554" y="94" type="line"/>
    </contour>
    <contour>
      <point x="662" y="281" type="line"/>
      <point x="662" y="866" type="line"/>
      <point x="1000" y="866" type="line"/>
    </contour>
  </outline>
</glyph>
<glyph name="F" format="2">
  <advance width="1000"/>
  <unicode hex="0046"/>
  <outline>
    <contour>
      <point x="500" y="0" type="line"/>
      <point x="271" y="397" type="line"/>
      <point x="604" y="397" type="line"/>
      <point x="812" y="758" type="line"/>
      <point x="63" y="758" type="line"/>
      <point x="0" y="866" type="line"/>
      <point x="1000" y="866" type="line"/>
    </contour>
    <contour>
      <point x="198" y="523" type="line"/>
      <point x="135" y="631" type="line"/>
      <point x="554" y="631" type="line"/>
      <point x="554" y="523" type="line"/>
    </contour>
  </outline>
</glyph>
<glyph name="G" format="2">
  <advance width="1000"/>
  <unicode hex="0047"/>
  <outline>
    <contour>
      <point x="500" y="0" type="line"/>
      <point x="0" y="866" type="line"/>
      <point x="1000" y="866" type="line"/>
    </contour>
    <contour>
      <point x="554" y="310" type="line"/>
      <point x="812" y="758" type="line"/>
      <point x="188" y="758" type="line"/>
      <point x="446" y="310" type="line"/>
      <point x="446" y="631" type="line"/>
      <point x="554" y="631" type="line"/>
    </contour>
  </outline>
</glyph>
<glyph name="G.inv" format="2">
  <advance width="200.0"/>
  <unicode hex="0047"/>
  <outline>
    <contour>
      <point x="100.0" y="0" type="move"/>
      <point x="-400.0" y="866" type="line"/>
      <point x="600.0" y="866" type="line"/>
    </contour>
    <contour>
      <point x="154.0" y="310" type="move"/>
      <point x="412.0" y="758" type="line"/>
      <point x="-212.0" y="758" type="line"/>
      <point x="46.0" y="310" type="line"/>
      <point x="46.0" y="631" type="line"/>
      <point x="154.0" y="631" type="line"/>
    </contour>
  </outline>
</glyph>
<glyph name="H" format="2">
  <advance width="1000"/>
  <unicode hex="0048"/>
  <outline>
    <contour>
      <point x="500" y="0" type="line"/>
      <point x="0" y="866" type="line"/>
      <point x="1000" y="866" type="line"/>
    </contour>
    <contour>
      <point x="446" y="758" type="line"/>
      <point x="188" y="758" type="line"/>
      <point x="446" y="310" type="line"/>
    </contour>
    <contour>
      <point x="812" y="758" type="line"/>
      <point x="554" y="758" type="line"/>
      <point x="554" y="310" type="line"/>
    </contour>
  </outline>
</glyph>
<glyph name="H.inv" format="2">
  <advance width="200.0"/>
  <unicode hex="0048"/>
  <outline>
    <contour>
      <point x="100.0" y="0" type="move"/>
      <point x="-400.0" y="866" type="line"/>
      <point x="600.0" y="866" type="line"/>
    </contour>
    <contour>
      <point x="46.0" y="758" type="move"/>
      <point x="-212.0" y="758" type="line"/>
      <point x="46.0" y="310" type="line"/>
    </contour>
    <contour>
      <point x="412.0" y="758" type="move"/>
      <point x="154.0" y="758" type="line"/>
      <point x="154.0" y="310" type="line"/>
    </contour>
  </outline>
</glyph>
<glyph name="I" format="2">
  <advance width="1000"/>
  <unicode hex="0049"/>
  <outline>
    <contour>
      <point x="500" y="0" type="line"/>
      <point x="0" y="866" type="line"/>
      <point x="1000" y="866" type="line"/>
    </contour>
    <contour>
      <point x="500" y="216" type="line"/>
      <point x="812" y="758" type="line"/>
      <point x="188" y="758" type="line"/>
    </contour>
    <contour>
      <point x="500" y="433" type="line"/>
      <point x="375" y="649" type="line"/>
      <point x="625" y="649" type="line"/>
    </contour>
  </outline>
</glyph>
<glyph name="I.inv" format="2">
  <advance width="200.0"/>
  <unicode hex="0049"/>
  <outline>
    <contour>
      <point x="100.0" y="0" type="move"/>
      <point x="-400.0" y="866" type="line"/>
      <point x="600.0" y="866" type="line"/>
    </contour>
    <contour>
      <point x="100.0" y="216" type="move"/>
      <point x="412.0" y="758" type="line"/>
      <point x="-212.0" y="758" type="line"/>
    </contour>
    <contour>
      <point x="100.0" y="433" type="move"/>
      <point x="-25.0" y="649" type="line"/>
      <point x="225.0" y="649" type="line"/>
    </contour>
  </outline>
</glyph>
<glyph name="J.inv" format="2">
  <advance width="200.0"/>
  <unicode hex="004A"/>
  <outline>
    <contour>
      <point x="100.0" y="0" type="move"/>
      <point x="-129.0" y="397" type="line"/>
      <point x="204.0" y="397" type="line"/>
      <point x="277.0" y="523" type="line"/>
      <point x="-202.0" y="523" type="line"/>
      <point x="-400.0" y="866" type="line"/>
      <point x="600.0" y="866" type="line"/>
      <point x="537.0" y="758" type="line"/>
      <point x="-212.0" y="758" type="line"/>
      <point x="-140.0" y="631" type="line"/>
      <point x="465.0" y="631" type="line"/>
    </contour>
  </outline>
</glyph>
<glyph name="K" format="2">
  <advance width="1000"/>
  <unicode hex="004B"/>
  <outline>
    <contour>
      <point x="500" y="866" type="line"/>
      <point x="446" y="772" type="line"/>
      <point x="446" y="514" type="line"/>
      <point x="338" y="514" type="line"/>
      <point x="338" y="585" type="line"/>
      <point x="0" y="0" type="line"/>
      <point x="125" y="0" type="line"/>
      <point x="188" y="108" type="line"/>
      <point x="446" y="108" type="line"/>
      <point x="446" y="0" type="line"/>
      <point x="554" y="0" type="line"/>
      <point x="554" y="108" type="line"/>
      <point x="812" y="108" type="line"/>
      <point x="875" y="0" type="line"/>
      <point x="1000" y="0" type="line"/>
      <point x="662" y="585" type="line"/>
      <point x="662" y="514" type="line"/>
      <point x="554" y="514" type="line"/>
      <point x="554" y="772" type="line"/>
    </contour>
    <contour>
      <point x="359" y="406" type="line"/>
      <point x="446" y="406" type="line"/>
      <point x="446" y="217" type="line"/>
      <point x="250" y="217" type="line"/>
    </contour>
    <contour>
      <point x="554" y="406" type="line"/>
      <point x="641" y="406" type="line"/>
      <point x="750" y="217" type="line"/>
      <point x="554" y="217" type="line"/>
    </contour>
  </outline>
</glyph>
<glyph name="K.inv" format="2">
  <advance width="200.0"/>
  <unicode hex="004B"/>
  <outline>
    <contour>
      <point x="100.0" y="0" type="move"/>
      <point x="46.0" y="94" type="line"/>
      <point x="46.0" y="352" type="line"/>
      <point x="-62.0" y="352" type="line"/>
      <point x="-62.0" y="281" type="line"/>
      <point x="-400.0" y="866" type="line"/>
      <point x="-275.0" y="866" type="line"/>
      <point x="-212.0" y="758" type="line"/>
      <point x="46.0" y="758" type="line"/>
      <point x="46.0" y="866" type="line"/>
      <point x="154.0" y="866" type="line"/>
      <point x="154.0" y="758" type="line"/>
      <point x="412.0" y="758" type="line"/>
      <point x="475.0" y="866" type="line"/>
      <point x="600.0" y="866" type="line"/>
      <point x="262.0" y="281" type="line"/>
      <point x="262.0" y="352" type="line"/>
      <point x="154.0" y="352" type="line"/>
      <point x="154.0" y="94" type="line"/>
    </contour>
    <contour>
      <point x="-41.0" y="460" type="move"/>
      <point x="46.0" y="460" type="line"/>
      <point x="46.0" y="649" type="line"/>
      <point x="-150.0" y="649" type="line"/>
    </contour>
    <contour>
      <point x="154.0" y="460" type="move"/>
      <point x="241.0" y="460" type="line"/>
      <point x="350.0" y="649" type="line"/>
      <point x="154.0" y="649" type="line"/>
    </contour>
  </outline>
</glyph>
<glyph name="L.inv" format="2">
  <advance width="200"/>
  <unicode hex="004C"/>
  <outline>
    <contour>
      <point x="100" y="866" type="line"/>
      <point x="-129" y="469" type="line"/>
      <point x="204" y="469" type="line"/>
      <point x="267" y="577" type="line"/>
    </contour>
    <contour>
      <point x="329" y="469" type="line"/>
      <point x="267" y="361" type="line"/>
      <point x="277" y="343" type="line"/>
      <point x="-202" y="343" type="line"/>
      <point x="-400" y="0" type="line"/>
      <point x="-275" y="0" type="line"/>
      <point x="-140" y="235" type="line"/>
      <point x="465" y="235" type="line"/>
    </contour>
    <contour>
      <point x="-87" y="108" type="line"/>
      <point x="-150" y="0" type="line"/>
      <point x="600" y="0" type="line"/>
      <point x="537" y="108" type="line"/>
    </contour>
  </outline>
</glyph>
<glyph name="M.inv" format="2">
  <advance width="200"/>
  <unicode hex="004D"/>
  <outline>
    <contour>
      <point x="100" y="0" type="move"/>
      <point x="329" y="397" type="line"/>
      <point x="-4" y="397" type="line"/>
      <point x="-212" y="758" type="line"/>
      <point x="537" y="758" type="line"/>
      <point x="600" y="866" type="line"/>
      <point x="-400" y="866" type="line"/>
    </contour>
    <contour>
      <point x="402" y="523" type="move"/>
      <point x="465" y="631" type="line"/>
      <point x="46" y="631" type="line"/>
      <point x="46" y="523" type="line"/>
    </contour>
  </outline>
</glyph>
<glyph name="N" format="2">
  <advance width="1000"/>
  <unicode hex="004E"/>
  <outline>
    <contour>
      <point x="500" y="0" type="line"/>
      <point x="125" y="649" type="line"/>
      <point x="250" y="649" type="line"/>
      <point x="500" y="216" type="line"/>
      <point x="625" y="216" type="line"/>
    </contour>
    <contour>
      <point x="500" y="433" type="line"/>
      <point x="375" y="649" type="line"/>
      <point x="625" y="649" type="line"/>
    </contour>
    <contour>
      <point x="562" y="325" type="line"/>
      <point x="812" y="758" type="line"/>
      <point x="63" y="758" type="line"/>
      <point x="0" y="866" type="line"/>
      <point x="1000" y="866" type="line"/>
      <point x="687" y="325" type="line"/>
    </contour>
  </outline>
</glyph>
<glyph name="N.inv" format="2">
  <advance width="200.0"/>
  <unicode hex="004E"/>
  <outline>
    <contour>
      <point x="100.0" y="0" type="move"/>
      <point x="-275.0" y="649" type="line"/>
      <point x="-150.0" y="649" type="line"/>
      <point x="100.0" y="216" type="line"/>
      <point x="225.0" y="216" type="line"/>
    </contour>
    <contour>
      <point x="100.0" y="433" type="move"/>
      <point x="-25.0" y="649" type="line"/>
      <point x="225.0" y="649" type="line"/>
    </contour>
    <contour>
      <point x="162.0" y="325" type="move"/>
      <point x="412.0" y="758" type="line"/>
      <point x="-337.0" y="758" type="line"/>
      <point x="-400.0" y="866" type="line"/>
      <point x="600.0" y="866" type="line"/>
      <point x="287.0" y="325" type="line"/>
    </contour>
  </outline>
</glyph>
<glyph name="O.inv" format="2">
  <advance width="200"/>
  <unicode hex="004F"/>
  <outline>
    <contour>
      <point x="100" y="866" type="line"/>
      <point x="-129" y="469" type="line"/>
      <point x="204" y="469" type="line"/>
      <point x="277" y="343" type="line"/>
      <point x="-202" y="343" type="line"/>
      <point x="-265" y="235" type="line"/>
      <point x="465" y="235" type="line"/>
    </contour>
    <contour>
      <point x="-337" y="108" type="line"/>
      <point x="-400" y="0" type="line"/>
      <point x="600" y="0" type="line"/>
      <point x="537" y="108" type="line"/>
    </contour>
  </outline>
</glyph>
<glyph name="Q" format="2">
  <advance width="1000"/>
  <unicode hex="0051"/>
  <outline>
    <contour>
      <point x="1000" y="0" type="line"/>
      <point x="446" y="0" type="line"/>
      <point x="446" y="556" type="line"/>
      <point x="321" y="556" type="line"/>
      <point x="500" y="866" type="line"/>
      <point x="554" y="772" type="line"/>
      <point x="554" y="108" type="line"/>
      <point x="937" y="108" type="line"/>
    </contour>
    <contour>
      <point x="258" y="448" type="line"/>
      <point x="0" y="0" type="line"/>
      <point x="338" y="0" type="line"/>
      <point x="338" y="108" type="line"/>
      <point x="188" y="108" type="line"/>
      <point x="383" y="448" type="line"/>
    </contour>
    <contour>
      <point x="662" y="585" type="line"/>
      <point x="662" y="368" type="line"/>
      <point x="750" y="217" type="line"/>
      <point x="875" y="217" type="line"/>
    </contour>
  </outline>
</glyph>
<glyph name="Q.inv" format="2">
  <advance width="200"/>
  <unicode hex="0051"/>
  <outline>
    <contour>
      <point x="600" y="866" type="move"/>
      <point x="46" y="866" type="line"/>
      <point x="46" y="310" type="line"/>
      <point x="-79" y="310" type="line"/>
      <point x="100" y="0" type="line"/>
      <point x="154" y="94" type="line"/>
      <point x="154" y="758" type="line"/>
      <point x="537" y="758" type="line"/>
    </contour>
    <contour>
      <point x="-142" y="418" type="move"/>
      <point x="-400" y="866" type="line"/>
      <point x="-62" y="866" type="line"/>
      <point x="-62" y="758" type="line"/>
      <point x="-212" y="758" type="line"/>
      <point x="-17" y="418" type="line"/>
    </contour>
    <contour>
      <point x="262" y="281" type="move"/>
      <point x="262" y="498" type="line"/>
      <point x="350" y="649" type="line"/>
      <point x="475" y="649" type="line"/>
    </contour>
  </outline>
</glyph>
<glyph name="R" format="2">
  <advance width="1000"/>
  <unicode hex="0052"/>
  <outline>
    <contour>
      <point x="500" y="866" type="move"/>
      <point x="0" y="0" type="line"/>
      <point x="125" y="0" type="line"/>
      <point x="562" y="758" type="line"/>
    </contour>
    <contour>
      <point x="500" y="433" type="move"/>
      <point x="375" y="217" type="line"/>
      <point x="625" y="217" type="line"/>
    </contour>
    <contour>
      <point x="625" y="650" type="move"/>
      <point x="562" y="541" type="line"/>
      <point x="812" y="108" type="line"/>
      <point x="313" y="108" type="line"/>
      <point x="250" y="0" type="line"/>
      <point x="1000" y="0" type="line"/>
    </contour>
  </outline>
</glyph>
<glyph name="S" format="2">
  <advance width="1000"/>
  <unicode hex="0053"/>
  <outline>
    <contour>
      <point x="500" y="866" type="move"/>
      <point x="271" y="469" type="line"/>
      <point x="729" y="469" type="line"/>
    </contour>
    <contour>
      <point x="198" y="343" type="move"/>
      <point x="0" y="0" type="line"/>
      <point x="1000" y="0" type="line"/>
      <point x="802" y="343" type="line"/>
    </contour>
    <contour>
      <point x="260" y="235" type="move"/>
      <point x="740" y="235" type="line"/>
      <point x="812" y="108" type="line"/>
      <point x="188" y="108" type="line"/>
    </contour>
  </outline>
</glyph>
<glyph name="S.inv" format="2">
  <advance width="200"/>
  <unicode hex="0053"/>
  <outline>
    <contour>
      <point x="100" y="866" type="line"/>
      <point x="-129" y="469" type="line"/>
      <point x="329" y="469" type="line"/>
    </contour>
    <contour>
      <point x="-202" y="343" type="line"/>
      <point x="-400" y="0" type="line"/>
      <point x="600" y="0" type="line"/>
      <point x="402" y="343" type="line"/>
    </contour>
    <contour>
      <point x="-140" y="235" type="line"/>
      <point x="340" y="235" type="line"/>
      <point x="412" y="108" type="line"/>
      <point x="-212" y="108" type="line"/>
    </contour>
  </outline>
</glyph>
<glyph name="T.inv" format="2">
  <advance width="200.0"/>
  <unicode hex="0054"/>
  <outline>
    <contour>
      <point x="100.0" y="0" type="move"/>
      <point x="-400.0" y="866" type="line"/>
      <point x="600.0" y="866" type="line"/>
    </contour>
    <contour>
      <point x="-4.0" y="397" type="move"/>
      <point x="204.0" y="397" type="line"/>
      <point x="277.0" y="523" type="line"/>
      <point x="-77.0" y="523" type="line"/>
    </contour>
    <contour>
      <point x="-140.0" y="631" type="move"/>
      <point x="340.0" y="631" type="line"/>
      <point x="412.0" y="758" type="line"/>
      <point x="-212.0" y="758" type="line"/>
    </contour>
  </outline>
</glyph>
<glyph name="U" format="2">
  <advance width="1000"/>
  <unicode hex="0055"/>
  <outline>
    <contour>
      <point x="500" y="0" type="line"/>
      <point x="446" y="94" type="line"/>
      <point x="446" y="649" type="line"/>
      <point x="554" y="649" type="line"/>
      <point x="554" y="94" type="line"/>
    </contour>
    <contour>
      <point x="271" y="397" type="line"/>
      <point x="0" y="866" type="line"/>
      <point x="1000" y="866" type="line"/>
      <point x="729" y="397" type="line"/>
      <point x="667" y="505" type="line"/>
      <point x="812" y="758" type="line"/>
      <point x="188" y="758" type="line"/>
      <point x="333" y="505" type="line"/>
    </contour>
  </outline>
</glyph>
<glyph name="U.inv" format="2">
  <advance width="200"/>
  <unicode hex="0055"/>
  <outline>
    <contour>
      <point x="100" y="0" type="move"/>
      <point x="46" y="94" type="line"/>
      <point x="46" y="649" type="line"/>
      <point x="154" y="649" type="line"/>
      <point x="154" y="94" type="line"/>
    </contour>
    <contour>
      <point x="-129" y="397" type="move"/>
      <point x="-400" y="866" type="line"/>
      <point x="600" y="866" type="line"/>
      <point x="329" y="397" type="line"/>
      <point x="267" y="505" type="line"/>
      <point x="412" y="758" type="line"/>
      <point x="-212" y="758" type="line"/>
      <point x="-67" y="505" type="line"/>
    </contour>
  </outline>
</glyph>
<glyph name="V" format="2">
  <advance width="1000"/>
  <unicode hex="0056"/>
  <outline>
    <contour>
      <point x="500" y="0" type="line"/>
      <point x="375" y="216" type="line"/>
      <point x="500" y="216" type="line"/>
      <point x="677" y="523" type="line"/>
      <point x="323" y="523" type="line"/>
      <point x="383" y="418" type="line"/>
      <point x="258" y="418" type="line"/>
      <point x="0" y="866" type="line"/>
      <point x="750" y="866" type="line"/>
      <point x="687" y="758" type="line"/>
      <point x="188" y="758" type="line"/>
      <point x="260" y="631" type="line"/>
      <point x="740" y="631" type="line"/>
      <point x="875" y="866" type="line"/>
      <point x="1000" y="866" type="line"/>
    </contour>
  </outline>
</glyph>
<glyph name="W" format="2">
  <advance width="1000"/>
  <unicode hex="0057"/>
  <outline>
    <contour>
      <point x="500" y="866" type="move"/>
      <point x="338" y="585" type="line"/>
      <point x="338" y="343" type="line"/>
      <point x="198" y="343" type="line"/>
      <point x="135" y="235" type="line"/>
      <point x="338" y="235" type="line"/>
      <point x="338" y="108" type="line"/>
      <point x="63" y="108" type="line"/>
      <point x="0" y="0" type="line"/>
      <point x="1000" y="0" type="line"/>
      <point x="937" y="108" type="line"/>
      <point x="662" y="108" type="line"/>
      <point x="662" y="235" type="line"/>
      <point x="865" y="235" type="line"/>
      <point x="802" y="343" type="line"/>
      <point x="662" y="343" type="line"/>
      <point x="662" y="585" type="line"/>
    </contour>
    <contour>
      <point x="446" y="469" type="move"/>
      <point x="554" y="469" type="line"/>
      <point x="554" y="343" type="line"/>
      <point x="446" y="343" type="line"/>
    </contour>
    <contour>
      <point x="446" y="235" type="move"/>
      <point x="554" y="235" type="line"/>
      <point x="554" y="108" type="line"/>
      <point x="446" y="108" type="line"/>
    </contour>
  </outline>
</glyph>
<glyph name="W.inv" format="2">
  <advance width="200"/>
  <unicode hex="0057"/>
  <outline>
    <contour>
      <point x="100" y="0" type="line"/>
      <point x="-62" y="281" type="line"/>
      <point x="-62" y="523" type="line"/>
      <point x="-202" y="523" type="line"/>
      <point x="-265" y="631" type="line"/>
      <point x="-62" y="631" type="line"/>
      <point x="-62" y="758" type="line"/>
      <point x="-337" y="758" type="line"/>
      <point x="-400" y="866" type="line"/>
      <point x="600" y="866" type="line"/>
      <point x="537" y="758" type="line"/>
      <point x="262" y="758" type="line"/>
      <point x="262" y="631" type="line"/>
      <point x="465" y="631" type="line"/>
      <point x="402" y="523" type="line"/>
      <point x="262" y="523" type="line"/>
      <point x="262" y="281" type="line"/>
    </contour>
    <contour>
      <point x="46" y="397" type="line"/>
      <point x="154" y="397" type="line"/>
      <point x="154" y="523" type="line"/>
      <point x="46" y="523" type="line"/>
    </contour>
    <contour>
      <point x="46" y="631" type="line"/>
      <point x="154" y="631" type="line"/>
      <point x="154" y="758" type="line"/>
      <point x="46" y="758" type="line"/>
    </contour>
  </outline>
</glyph>
<glyph name="X" format="2">
  <advance width="1000"/>
  <unicode hex="0058"/>
  <outline>
    <contour>
      <point x="500" y="0" type="line"/>
      <point x="625" y="216" type="line"/>
      <point x="500" y="216" type="line"/>
      <point x="323" y="523" type="line"/>
      <point x="677" y="523" type="line"/>
      <point x="617" y="418" type="line"/>
      <point x="742" y="418" type="line"/>
      <point x="875" y="649" type="line"/>
      <point x="750" y="649" type="line"/>
      <point x="740" y="631" type="line"/>
      <point x="260" y="631" type="line"/>
      <point x="250" y="649" type="line"/>
      <point x="125" y="649" type="line"/>
    </contour>
    <contour>
      <point x="63" y="758" type="line"/>
      <point x="0" y="866" type="line"/>
      <point x="1000" y="866" type="line"/>
      <point x="937" y="758" type="line"/>
    </contour>
  </outline>
</glyph>
<glyph name="X.inv" format="2">
  <advance width="200.0"/>
  <unicode hex="0058"/>
  <outline>
    <contour>
      <point x="100.0" y="0" type="move"/>
      <point x="-25.0" y="216" type="line"/>
      <point x="100.0" y="216" type="line"/>
      <point x="277.0" y="523" type="line"/>
      <point x="-77.0" y="523" type="line"/>
      <point x="-17.0" y="418" type="line"/>
      <point x="-142.0" y="418" type="line"/>
      <point x="-400.0" y="866" type="line"/>
      <point x="350.0" y="866" type="line"/>
      <point x="287.0" y="758" type="line"/>
      <point x="-212.0" y="758" type="line"/>
      <point x="-140.0" y="631" type="line"/>
      <point x="340.0" y="631" type="line"/>
      <point x="475.0" y="866" type="line"/>
      <point x="600.0" y="866" type="line"/>
    </contour>
  </outline>
</glyph>
<glyph name="Y" format="2">
  <advance width="1000"/>
  <unicode hex="0059"/>
  <outline>
    <contour>
      <point x="500" y="0" type="line"/>
      <point x="679" y="310" type="line"/>
      <point x="554" y="310" type="line"/>
      <point x="554" y="758" type="line"/>
      <point x="937" y="758" type="line"/>
      <point x="1000" y="866" type="line"/>
      <point x="0" y="866" type="line"/>
      <point x="63" y="758" type="line"/>
      <point x="446" y="758" type="line"/>
      <point x="446" y="310" type="line"/>
      <point x="250" y="649" type="line"/>
      <point x="125" y="649" type="line"/>
    </contour>
    <contour>
      <point x="742" y="418" type="line"/>
      <point x="875" y="649" type="line"/>
      <point x="750" y="649" type="line"/>
      <point x="617" y="418" type="line"/>
    </contour>
  </outline>
</glyph>
<glyph name="Z" format="2">
  <advance width="1000"/>
  <unicode hex="005A"/>
  <outline>
    <contour>
      <point x="500" y="866" type="move"/>
      <point x="625" y="650" type="line"/>
      <point x="500" y="650" type="line"/>
      <point x="323" y="343" type="line"/>
      <point x="677" y="343" type="line"/>
      <point x="617" y="448" type="line"/>
      <point x="742" y="448" type="line"/>
      <point x="1000" y="0" type="line"/>
      <point x="875.0" y="0.0" type="line"/>
      <point x="740" y="235" type="line"/>
      <point x="260" y="235" type="line"/>
      <point x="125" y="0" type="line"/>
      <point x="0" y="0" type="line"/>
    </contour>
    <contour>
      <point x="250" y="0" type="move"/>
      <point x="313" y="108" type="line"/>
      <point x="687" y="108" type="line"/>
      <point x="750" y="0" type="line"/>
    </contour>
  </outline>
</glyph>
<glyph name="Z.inv" format="2">
  <advance width="200"/>
  <unicode hex="005A"/>
  <outline>
    <contour>
      <point x="100" y="0" type="line"/>
      <point x="225" y="216" type="line"/>
      <point x="100" y="216" type="line"/>
      <point x="-77" y="523" type="line"/>
      <point x="277" y="523" type="line"/>
      <point x="217" y="418" type="line"/>
      <point x="342" y="418" type="line"/>
      <point x="600" y="866" type="line"/>
      <point x="475" y="866" type="line"/>
      <point x="340" y="631" type="line"/>
      <point x="-140" y="631" type="line"/>
      <point x="-275" y="866" type="line"/>
      <point x="-400" y="866" type="line"/>
    </contour>
    <contour>
      <point x="-150" y="866" type="line"/>
      <point x="-87" y="758" type="line"/>
      <point x="287" y="758" type="line"/>
      <point x="350" y="866" type="line"/>
    </contour>
  </outline>
</glyph>
<glyph name="a" format="2">
  <advance width="1000.0"/>
  <unicode hex="0061"/>
  <outline>
    <contour>
      <point x="0.0" y="0.0" type="move"/>
      <point x="554.0" y="0.0" type="line"/>
      <point x="554.0" y="555.0" type="line"/>
      <point x="812.0" y="108.0" type="line"/>
      <point x="662.0" y="108.0" type="line"/>
      <point x="662.0" y="0.0" type="line"/>
      <point x="1000.0" y="0.0" type="line"/>
      <point x="500.0" y="866.0" type="line"/>
      <point x="446.0" y="772.0" type="line"/>
      <point x="446.0" y="108.0" type="line"/>
      <point x="188.0" y="108.0" type="line"/>
      <point x="338.0" y="368.0" type="line"/>
      <point x="338.0" y="585.0" type="line"/>
    </contour>
  </outline>
</glyph>
<glyph name="a.inv" format="2">
  <advance width="200"/>
  <unicode hex="0061"/>
  <outline>
    <contour>
      <point x="-400" y="866" type="move"/>
      <point x="154" y="866" type="line"/>
      <point x="154" y="311" type="line"/>
      <point x="412" y="758" type="line"/>
      <point x="262" y="758" type="line"/>
      <point x="262" y="866" type="line"/>
      <point x="600" y="866" type="line"/>
      <point x="100" y="0" type="line"/>
      <point x="46" y="94" type="line"/>
      <point x="46" y="758" type="line"/>
      <point x="-212" y="758" type="line"/>
      <point x="-62" y="498" type="line"/>
      <point x="-62" y="281" type="line"/>
    </contour>
  </outline>
</glyph>
<glyph name="b" format="2">
  <advance width="1000"/>
  <unicode hex="0062"/>
  <outline>
    <contour>
      <point x="0" y="866" type="line"/>
      <point x="1000" y="866" type="line"/>
      <point x="500" y="0" type="line"/>
    </contour>
    <contour>
      <point x="677" y="523" type="line"/>
      <point x="446" y="523" type="line"/>
      <point x="446" y="631" type="line"/>
      <point x="734" y="631" type="line"/>
      <point x="812" y="758" type="line"/>
      <point x="188" y="758" type="line"/>
      <point x="396" y="397" type="line"/>
      <point x="604" y="397" type="line"/>
    </contour>
  </outline>
</glyph>
<glyph name="b.inv" format="2">
  <advance width="200.0"/>
  <unicode hex="0062"/>
  <outline>
    <contour>
      <point x="-400.0" y="866" type="move"/>
      <point x="600.0" y="866" type="line"/>
      <point x="100.0" y="0" type="line"/>
    </contour>
    <contour>
      <point x="277.0" y="523" type="move"/>
      <point x="46.0" y="523" type="line"/>
      <point x="46.0" y="631" type="line"/>
      <point x="334.0" y="631" type="line"/>
      <point x="412.0" y="758" type="line"/>
      <point x="-212.0" y="758" type="line"/>
      <point x="-4.0" y="397" type="line"/>
      <point x="204.0" y="397" type="line"/>
    </contour>
  </outline>
</glyph>
<glyph name="c" format="2">
  <advance width="1000"/>
  <unicode hex="0063"/>
  <outline>
    <contour>
      <point x="500" y="0" type="line"/>
      <point x="271" y="397" type="line"/>
      <point x="729" y="397" type="line"/>
    </contour>
    <contour>
      <point x="198" y="523" type="line"/>
      <point x="135" y="631" type="line"/>
      <point x="865" y="631" type="line"/>
      <point x="802" y="523" type="line"/>
    </contour>
    <contour>
      <point x="63" y="758" type="line"/>
      <point x="0" y="866" type="line"/>
      <point x="1000" y="866" type="line"/>
      <point x="937" y="758" type="line"/>
    </contour>
  </outline>
</glyph>
<glyph name="d" format="2">
  <advance width="1000"/>
  <unicode hex="0064"/>
  <outline>
    <contour>
      <point x="1000" y="866" type="line"/>
      <point x="446" y="866" type="line"/>
      <point x="446" y="310" type="line"/>
      <point x="188" y="758" type="line"/>
      <point x="338" y="758" type="line"/>
      <point x="338" y="866" type="line"/>
      <point x="0" y="866" type="line"/>
      <point x="500" y="0" type="line"/>
      <point x="554" y="94" type="line"/>
      <point x="554" y="758" type="line"/>
      <point x="812" y="758" type="line"/>
      <point x="662" y="498" type="line"/>
      <point x="662" y="281" type="line"/>
    </contour>
  </outline>
</glyph>
<glyph name="d.inv" format="2">
  <advance width="200"/>
  <unicode hex="0064"/>
  <outline>
    <contour>
      <point x="600" y="0" type="line"/>
      <point x="46" y="0" type="line"/>
      <point x="46" y="556" type="line"/>
      <point x="-212" y="108" type="line"/>
      <point x="-62" y="108" type="line"/>
      <point x="-62" y="0" type="line"/>
      <point x="-400" y="0" type="line"/>
      <point x="100" y="866" type="line"/>
      <point x="154" y="772" type="line"/>
      <point x="154" y="108" type="line"/>
      <point x="412" y="108" type="line"/>
      <point x="262" y="368" type="line"/>
      <point x="262" y="585" type="line"/>
    </contour>
  </outline>
</glyph>
<glyph name="f" format="2">
  <advance width="1000"/>
  <unicode hex="0066"/>
  <outline>
    <contour>
      <point x="500" y="866" type="move"/>
      <point x="271" y="469" type="line"/>
      <point x="604" y="469" type="line"/>
      <point x="812" y="108" type="line"/>
      <point x="63" y="108" type="line"/>
      <point x="0" y="0" type="line"/>
      <point x="1000" y="0" type="line"/>
    </contour>
    <contour>
      <point x="198" y="343" type="move"/>
      <point x="135" y="235" type="line"/>
      <point x="554" y="235" type="line"/>
      <point x="554" y="343" type="line"/>
    </contour>
  </outline>
</glyph>
<glyph name="f.inv" format="2">
  <advance width="200"/>
  <unicode hex="0066"/>
  <outline>
    <contour>
      <point x="100" y="0" type="move"/>
      <point x="-129" y="397" type="line"/>
      <point x="204" y="397" type="line"/>
      <point x="412" y="758" type="line"/>
      <point x="-337" y="758" type="line"/>
      <point x="-400" y="866" type="line"/>
      <point x="600" y="866" type="line"/>
    </contour>
    <contour>
      <point x="-202" y="523" type="move"/>
      <point x="-265" y="631" type="line"/>
      <point x="154" y="631" type="line"/>
      <point x="154" y="523" type="line"/>
    </contour>
  </outline>
</glyph>
<glyph name="g" format="2">
  <advance width="1000"/>
  <unicode hex="0067"/>
  <outline>
    <contour>
      <point x="500" y="866" type="line"/>
      <point x="0" y="0" type="line"/>
      <point x="1000" y="0" type="line"/>
    </contour>
    <contour>
      <point x="554" y="556" type="line"/>
      <point x="812" y="108" type="line"/>
      <point x="188" y="108" type="line"/>
      <point x="446" y="556" type="line"/>
      <point x="446" y="235" type="line"/>
      <point x="554" y="235" type="line"/>
    </contour>
  </outline>
</glyph>
<glyph name="g.inv" format="2">
  <advance width="200"/>
  <unicode hex="0067"/>
  <outline>
    <contour>
      <point x="100" y="866" type="line"/>
      <point x="-400" y="0" type="line"/>
      <point x="600" y="0" type="line"/>
    </contour>
    <contour>
      <point x="154" y="556" type="line"/>
      <point x="412" y="108" type="line"/>
      <point x="-212" y="108" type="line"/>
      <point x="46" y="556" type="line"/>
      <point x="46" y="235" type="line"/>
      <point x="154" y="235" type="line"/>
    </contour>
  </outline>
</glyph>
<glyph name="h" format="2">
  <advance width="1000"/>
  <unicode hex="0068"/>
  <outline>
    <contour>
      <point x="500" y="866" type="move"/>
      <point x="0" y="0" type="line"/>
      <point x="1000" y="0" type="line"/>
    </contour>
    <contour>
      <point x="446" y="108" type="move"/>
      <point x="188" y="108" type="line"/>
      <point x="446" y="556" type="line"/>
    </contour>
    <contour>
      <point x="812" y="108" type="move"/>
      <point x="554" y="108" type="line"/>
      <point x="554" y="556" type="line"/>
    </contour>
  </outline>
</glyph>
<glyph name="h.inv" format="2">
  <advance width="200"/>
  <unicode hex="0068"/>
  <outline>
    <contour>
      <point x="100" y="0" type="line"/>
      <point x="-400" y="866" type="line"/>
      <point x="600" y="866" type="line"/>
    </contour>
    <contour>
      <point x="46" y="758" type="line"/>
      <point x="-212" y="758" type="line"/>
      <point x="46" y="310" type="line"/>
    </contour>
    <contour>
      <point x="412" y="758" type="line"/>
      <point x="154" y="758" type="line"/>
      <point x="154" y="310" type="line"/>
    </contour>
  </outline>
</glyph>
<glyph name="i" format="2">
  <advance width="1000"/>
  <unicode hex="0069"/>
  <outline>
    <contour>
      <point x="500" y="866" type="line"/>
      <point x="0" y="0" type="line"/>
      <point x="1000" y="0" type="line"/>
    </contour>
    <contour>
      <point x="500" y="650" type="line"/>
      <point x="812" y="108" type="line"/>
      <point x="188" y="108" type="line"/>
    </contour>
    <contour>
      <point x="500" y="433" type="line"/>
      <point x="375" y="217" type="line"/>
      <point x="625" y="217" type="line"/>
    </contour>
  </outline>
</glyph>
<glyph name="j" format="2">
  <advance width="1000"/>
  <unicode hex="006A"/>
  <outline>
    <contour>
      <point x="500" y="0" type="line"/>
      <point x="271" y="397" type="line"/>
      <point x="604" y="397" type="line"/>
      <point x="677" y="523" type="line"/>
      <point x="198" y="523" type="line"/>
      <point x="0" y="866" type="line"/>
      <point x="1000" y="866" type="line"/>
      <point x="937" y="758" type="line"/>
      <point x="188" y="758" type="line"/>
      <point x="260" y="631" type="line"/>
      <point x="865" y="631" type="line"/>
    </contour>
  </outline>
</glyph>
<glyph name="j.inv" format="2">
  <advance width="200"/>
  <unicode hex="006A"/>
  <outline>
    <contour>
      <point x="100" y="866" type="line"/>
      <point x="-129" y="469" type="line"/>
      <point x="204" y="469" type="line"/>
      <point x="277" y="343" type="line"/>
      <point x="-202" y="343" type="line"/>
      <point x="-400" y="0" type="line"/>
      <point x="600" y="0" type="line"/>
      <point x="537" y="108" type="line"/>
      <point x="-212" y="108" type="line"/>
      <point x="-140" y="235" type="line"/>
      <point x="465" y="235" type="line"/>
    </contour>
  </outline>
</glyph>
<glyph name="k.inv" format="2">
  <advance width="200"/>
  <unicode hex="006B"/>
  <outline>
    <contour>
      <point x="100" y="866" type="line"/>
      <point x="-62" y="585" type="line"/>
      <point x="-62" y="343" type="line"/>
      <point x="-202" y="343" type="line"/>
      <point x="-265" y="235" type="line"/>
      <point x="-62" y="235" type="line"/>
      <point x="-62" y="108" type="line"/>
      <point x="-337" y="108" type="line"/>
      <point x="-400" y="0" type="line"/>
      <point x="600" y="0" type="line"/>
      <point x="537" y="108" type="line"/>
      <point x="262" y="108" type="line"/>
      <point x="262" y="235" type="line"/>
      <point x="465" y="235" type="line"/>
      <point x="402" y="343" type="line"/>
      <point x="262" y="343" type="line"/>
      <point x="262" y="585" type="line"/>
    </contour>
    <contour>
      <point x="46" y="469" type="line"/>
      <point x="154" y="469" type="line"/>
      <point x="154" y="343" type="line"/>
      <point x="46" y="343" type="line"/>
    </contour>
    <contour>
      <point x="46" y="235" type="line"/>
      <point x="154" y="235" type="line"/>
      <point x="154" y="108" type="line"/>
      <point x="46" y="108" type="line"/>
    </contour>
  </outline>
</glyph>
<glyph name="l" format="2">
  <advance width="1000"/>
  <unicode hex="006C"/>
  <outline>
    <contour>
      <point x="500" y="0" type="line"/>
      <point x="271" y="397" type="line"/>
      <point x="604" y="397" type="line"/>
      <point x="667" y="289" type="line"/>
    </contour>
    <contour>
      <point x="729" y="397" type="line"/>
      <point x="667" y="505" type="line"/>
      <point x="677" y="523" type="line"/>
      <point x="198" y="523" type="line"/>
      <point x="0" y="866" type="line"/>
      <point x="125" y="866" type="line"/>
      <point x="260" y="631" type="line"/>
      <point x="865" y="631" type="line"/>
    </contour>
    <contour>
      <point x="313" y="758" type="line"/>
      <point x="250" y="866" type="line"/>
      <point x="1000" y="866" type="line"/>
      <point x="937" y="758" type="line"/>
    </contour>
  </outline>
</glyph>
<glyph name="l.inv" format="2">
  <advance width="200"/>
  <unicode hex="006C"/>
  <outline>
    <contour>
      <point x="100" y="0" type="move"/>
      <point x="-129" y="397" type="line"/>
      <point x="204" y="397" type="line"/>
      <point x="267" y="289" type="line"/>
    </contour>
    <contour>
      <point x="329" y="397" type="line"/>
      <point x="267" y="505" type="line"/>
      <point x="277" y="523" type="line"/>
      <point x="-202" y="523" type="line"/>
      <point x="-400" y="866" type="line"/>
      <point x="-275" y="866" type="line"/>
      <point x="-140" y="631" type="line"/>
      <point x="465" y="631" type="line"/>
    </contour>
    <contour>
      <point x="-87" y="758" type="move"/>
      <point x="-150" y="866" type="line"/>
      <point x="600" y="866" type="line"/>
      <point x="537" y="758" type="line"/>
    </contour>
  </outline>
</glyph>
<glyph name="m" format="2">
  <advance width="1000"/>
  <unicode hex="006D"/>
  <outline>
    <contour>
      <point x="500" y="866" type="move"/>
      <point x="729" y="469" type="line"/>
      <point x="396" y="469" type="line"/>
      <point x="188" y="108" type="line"/>
      <point x="937" y="108" type="line"/>
      <point x="1000" y="0" type="line"/>
      <point x="0" y="0" type="line"/>
    </contour>
    <contour>
      <point x="802" y="343" type="move"/>
      <point x="865" y="235" type="line"/>
      <point x="446" y="235" type="line"/>
      <point x="446" y="343" type="line"/>
    </contour>
  </outline>
</glyph>
<glyph name="m.inv" format="2">
  <advance width="200"/>
  <unicode hex="006D"/>
  <outline>
    <contour>
      <point x="100" y="866" type="line"/>
      <point x="329" y="469" type="line"/>
      <point x="-4" y="469" type="line"/>
      <point x="-212" y="108" type="line"/>
      <point x="537" y="108" type="line"/>
      <point x="600" y="0" type="line"/>
      <point x="-400" y="0" type="line"/>
    </contour>
    <contour>
      <point x="402" y="343" type="line"/>
      <point x="465" y="235" type="line"/>
      <point x="46" y="235" type="line"/>
      <point x="46" y="343" type="line"/>
    </contour>
  </outline>
</glyph>
<glyph name="n" format="2">
  <advance width="1000"/>
  <unicode hex="006E"/>
  <outline>
    <contour>
      <point x="500" y="866" type="move"/>
      <point x="125" y="217" type="line"/>
      <point x="250" y="217" type="line"/>
      <point x="500" y="650" type="line"/>
      <point x="625" y="650" type="line"/>
    </contour>
    <contour>
      <point x="500" y="433" type="move"/>
      <point x="375" y="217" type="line"/>
      <point x="625" y="217" type="line"/>
    </contour>
    <contour>
      <point x="562" y="541" type="move"/>
      <point x="812" y="108" type="line"/>
      <point x="63" y="108" type="line"/>
      <point x="0" y="0" type="line"/>
      <point x="1000" y="0" type="line"/>
      <point x="687" y="541" type="line"/>
    </contour>
  </outline>
</glyph>
<glyph name="o" format="2">
  <advance width="1000"/>
  <unicode hex="006F"/>
  <outline>
    <contour>
      <point x="500" y="866" type="line"/>
      <point x="271" y="469" type="line"/>
      <point x="604" y="469" type="line"/>
      <point x="677" y="343" type="line"/>
      <point x="198" y="343" type="line"/>
      <point x="135" y="235" type="line"/>
      <point x="865" y="235" type="line"/>
    </contour>
    <contour>
      <point x="63" y="108" type="line"/>
      <point x="0" y="0" type="line"/>
      <point x="1000" y="0" type="line"/>
      <point x="937" y="108" type="line"/>
    </contour>
  </outline>
</glyph>
<glyph name="o.inv" format="2">
  <advance width="200.0"/>
  <unicode hex="006F"/>
  <outline>
    <contour>
      <point x="100.0" y="0" type="move"/>
      <point x="-129.0" y="397" type="line"/>
      <point x="204.0" y="397" type="line"/>
      <point x="277.0" y="523" type="line"/>
      <point x="-202.0" y="523" type="line"/>
      <point x="-265.0" y="631" type="line"/>
      <point x="465.0" y="631" type="line"/>
    </contour>
    <contour>
      <point x="-337.0" y="758" type="move"/>
      <point x="-400.0" y="866" type="line"/>
      <point x="600.0" y="866" type="line"/>
      <point x="537.0" y="758" type="line"/>
    </contour>
  </outline>
</glyph>
<glyph name="q" format="2">
  <advance width="1000"/>
  <unicode hex="0071"/>
  <outline>
    <contour>
      <point x="1000" y="866" type="line"/>
      <point x="446" y="866" type="line"/>
      <point x="446" y="310" type="line"/>
      <point x="321" y="310" type="line"/>
      <point x="500" y="0" type="line"/>
      <point x="554" y="94" type="line"/>
      <point x="554" y="758" type="line"/>
      <point x="937" y="758" type="line"/>
    </contour>
    <contour>
      <point x="258" y="418" type="line"/>
      <point x="0" y="866" type="line"/>
      <point x="338" y="866" type="line"/>
      <point x="338" y="758" type="line"/>
      <point x="188" y="758" type="line"/>
      <point x="383" y="418" type="line"/>
    </contour>
    <contour>
      <point x="662" y="281" type="line"/>
      <point x="662" y="498" type="line"/>
      <point x="750" y="649" type="line"/>
      <point x="875" y="649" type="line"/>
    </contour>
  </outline>
</glyph>
<glyph name="q.inv" format="2">
  <advance width="200"/>
  <unicode hex="0071"/>
  <outline>
    <contour>
      <point x="600" y="0" type="line"/>
      <point x="46" y="0" type="line"/>
      <point x="46" y="556" type="line"/>
      <point x="-79" y="556" type="line"/>
      <point x="100" y="866" type="line"/>
      <point x="154" y="772" type="line"/>
      <point x="154" y="108" type="line"/>
      <point x="537" y="108" type="line"/>
    </contour>
    <contour>
      <point x="-142" y="448" type="line"/>
      <point x="-400" y="0" type="line"/>
      <point x="-62" y="0" type="line"/>
      <point x="-62" y="108" type="line"/>
      <point x="-212" y="108" type="line"/>
      <point x="-17" y="448" type="line"/>
    </contour>
    <contour>
      <point x="262" y="585" type="line"/>
      <point x="262" y="368" type="line"/>
      <point x="350" y="217" type="line"/>
      <point x="475" y="217" type="line"/>
    </contour>
  </outline>
</glyph>
<glyph name="r.inv" format="2">
  <advance width="200.0"/>
  <unicode hex="0072"/>
  <outline>
    <contour>
      <point x="100.0" y="0" type="move"/>
      <point x="-400.0" y="866" type="line"/>
      <point x="-275.0" y="866" type="line"/>
      <point x="162.0" y="108" type="line"/>
    </contour>
    <contour>
      <point x="100.0" y="433" type="move"/>
      <point x="-25.0" y="649" type="line"/>
      <point x="225.0" y="649" type="line"/>
    </contour>
    <contour>
      <point x="225.0" y="216" type="move"/>
      <point x="162.0" y="325" type="line"/>
      <point x="412.0" y="758" type="line"/>
      <point x="-87.0" y="758" type="line"/>
      <point x="-150.0" y="866" type="line"/>
      <point x="600.0" y="866" type="line"/>
    </contour>
  </outline>
</glyph>
<glyph name="s" format="2">
  <advance width="1000"/>
  <unicode hex="0073"/>
  <outline>
    <contour>
      <point x="500" y="0" type="line"/>
      <point x="271" y="397" type="line"/>
      <point x="729" y="397" type="line"/>
    </contour>
    <contour>
      <point x="198" y="523" type="line"/>
      <point x="0" y="866" type="line"/>
      <point x="1000" y="866" type="line"/>
      <point x="802" y="523" type="line"/>
    </contour>
    <contour>
      <point x="260" y="631" type="line"/>
      <point x="740" y="631" type="line"/>
      <point x="812" y="758" type="line"/>
      <point x="188" y="758" type="line"/>
    </contour>
  </outline>
</glyph>
<glyph name="s.inv" format="2">
  <advance width="200.0"/>
  <unicode hex="0073"/>
  <outline>
    <contour>
      <point x="100.0" y="0" type="move"/>
      <point x="-129.0" y="397" type="line"/>
      <point x="329.0" y="397" type="line"/>
    </contour>
    <contour>
      <point x="-202.0" y="523" type="move"/>
      <point x="-400.0" y="866" type="line"/>
      <point x="600.0" y="866" type="line"/>
      <point x="402.0" y="523" type="line"/>
    </contour>
    <contour>
      <point x="-140.0" y="631" type="move"/>
      <point x="340.0" y="631" type="line"/>
      <point x="412.0" y="758" type="line"/>
      <point x="-212.0" y="758" type="line"/>
    </contour>
  </outline>
</glyph>
<glyph name="t.inv" format="2">
  <advance width="200"/>
  <unicode hex="0074"/>
  <outline>
    <contour>
      <point x="100" y="866" type="line"/>
      <point x="-400" y="0" type="line"/>
      <point x="600" y="0" type="line"/>
    </contour>
    <contour>
      <point x="-4" y="469" type="line"/>
      <point x="204" y="469" type="line"/>
      <point x="277" y="343" type="line"/>
      <point x="-77" y="343" type="line"/>
    </contour>
    <contour>
      <point x="-140" y="235" type="line"/>
      <point x="340" y="235" type="line"/>
      <point x="412" y="108" type="line"/>
      <point x="-212" y="108" type="line"/>
    </contour>
  </outline>
</glyph>
<glyph name="u" format="2">
  <advance width="1000"/>
  <unicode hex="0075"/>
  <outline>
    <contour>
      <point x="500" y="866" type="move"/>
      <point x="446" y="772" type="line"/>
      <point x="446" y="217" type="line"/>
      <point x="554" y="217" type="line"/>
      <point x="554" y="772" type="line"/>
    </contour>
    <contour>
      <point x="271" y="469" type="move"/>
      <point x="0" y="0" type="line"/>
      <point x="1000" y="0" type="line"/>
      <point x="729" y="469" type="line"/>
      <point x="667" y="361" type="line"/>
      <point x="812" y="108" type="line"/>
      <point x="188" y="108" type="line"/>
      <point x="333" y="361" type="line"/>
    </contour>
  </outline>
</glyph>
<glyph name="u.inv" format="2">
  <advance width="200.0"/>
  <unicode hex="0075"/>
  <outline>
    <contour>
      <point x="100.0" y="0" type="move"/>
      <point x="46.0" y="94" type="line"/>
      <point x="46.0" y="649" type="line"/>
      <point x="154.0" y="649" type="line"/>
      <point x="154.0" y="94" type="line"/>
    </contour>
    <contour>
      <point x="-129.0" y="397" type="move"/>
      <point x="-400.0" y="866" type="line"/>
      <point x="600.0" y="866" type="line"/>
      <point x="329.0" y="397" type="line"/>
      <point x="267.0" y="505" type="line"/>
      <point x="412.0" y="758" type="line"/>
      <point x="-212.0" y="758" type="line"/>
      <point x="-67.0" y="505" type="line"/>
    </contour>
  </outline>
</glyph>
<glyph name="v" format="2">
  <advance width="1000"/>
  <unicode hex="0076"/>
  <outline>
    <contour>
      <point x="500" y="0" type="line"/>
      <point x="271" y="397" type="line"/>
      <point x="729" y="397" type="line"/>
    </contour>
    <contour>
      <point x="198" y="523" type="line"/>
      <point x="0" y="866" type="line"/>
      <point x="1000" y="866" type="line"/>
      <point x="937" y="758" type="line"/>
      <point x="188" y="758" type="line"/>
      <point x="260" y="631" type="line"/>
      <point x="865" y="631" type="line"/>
      <point x="802" y="523" type="line"/>
    </contour>
  </outline>
</glyph>
<glyph name="v.inv" format="2">
  <advance width="200"/>
  <unicode hex="0076"/>
  <outline>
    <contour>
      <point x="100" y="0" type="move"/>
      <point x="-129" y="397" type="line"/>
      <point x="329" y="397" type="line"/>
    </contour>
    <contour>
      <point x="-202" y="523" type="move"/>
      <point x="-400" y="866" type="line"/>
      <point x="600" y="866" type="line"/>
      <point x="537" y="758" type="line"/>
      <point x="-212" y="758" type="line"/>
      <point x="-140" y="631" type="line"/>
      <point x="465" y="631" type="line"/>
      <point x="402" y="523" type="line"/>
    </contour>
  </outline>
</glyph>
<glyph name="x" format="2">
  <advance width="1000"/>
  <unicode hex="0078"/>
  <outline>
    <contour>
      <point x="500" y="866" type="move"/>
      <point x="375" y="650" type="line"/>
      <point x="500" y="650" type="line"/>
      <point x="677" y="343" type="line"/>
      <point x="323" y="343" type="line"/>
      <point x="383" y="448" type="line"/>
      <point x="258" y="448" type="line"/>
      <point x="0" y="0" type="line"/>
      <point x="750" y="0" type="line"/>
      <point x="687" y="108" type="line"/>
      <point x="188" y="108" type="line"/>
      <point x="260" y="235" type="line"/>
      <point x="740" y="235" type="line"/>
      <point x="875" y="0" type="line"/>
      <point x="1000" y="0" type="line"/>
    </contour>
  </outline>
</glyph>
<glyph name="x.inv" format="2">
  <advance width="200"/>
  <unicode hex="0078"/>
  <outline>
    <contour>
      <point x="100" y="866" type="line"/>
      <point x="-25" y="650" type="line"/>
      <point x="100" y="650" type="line"/>
      <point x="277" y="343" type="line"/>
      <point x="-77" y="343" type="line"/>
      <point x="-17" y="448" type="line"/>
      <point x="-142" y="448" type="line"/>
      <point x="-400" y="0" type="line"/>
      <point x="350" y="0" type="line"/>
      <point x="287" y="108" type="line"/>
      <point x="-212" y="108" type="line"/>
      <point x="-140" y="235" type="line"/>
      <point x="340" y="235" type="line"/>
      <point x="475" y="0" type="line"/>
      <point x="600" y="0" type="line"/>
    </contour>
  </outline>
</glyph>
<glyph name="y" format="2">
  <advance width="1000"/>
  <unicode hex="0079"/>
  <outline>
    <contour>
      <point x="500" y="866" type="move"/>
      <point x="679" y="556" type="line"/>
      <point x="554" y="556" type="line"/>
      <point x="554" y="108" type="line"/>
      <point x="937" y="108" type="line"/>
      <point x="1000" y="0" type="line"/>
      <point x="0" y="0" type="line"/>
      <point x="63" y="108" type="line"/>
      <point x="446" y="108" type="line"/>
      <point x="446" y="556" type="line"/>
      <point x="250" y="217" type="line"/>
      <point x="125" y="217" type="line"/>
    </contour>
    <contour>
      <point x="742" y="448" type="move"/>
      <point x="875" y="217" type="line"/>
      <point x="750" y="217" type="line"/>
      <point x="617" y="448" type="line"/>
    </contour>
  </outline>
</glyph>
<glyph name="z.inv" format="2">
  <advance width="200.0"/>
  <unicode hex="007A"/>
  <outline>
    <contour>
      <point x="100.0" y="0" type="move"/>
      <point x="225.0" y="216" type="line"/>
      <point x="100.0" y="216" type="line"/>
      <point x="-77.0" y="523" type="line"/>
      <point x="277.0" y="523" type="line"/>
      <point x="217.0" y="418" type="line"/>
      <point x="342.0" y="418" type="line"/>
      <point x="600.0" y="866" type="line"/>
      <point x="475.0" y="866.0" type="line"/>
      <point x="340.0" y="631" type="line"/>
      <point x="-140.0" y="631" type="line"/>
      <point x="-275.0" y="866" type="line"/>
      <point x="-400.0" y="866" type="line"/>
    </contour>
    <contour>
      <point x="-150.0" y="866" type="move"/>
      <point x="-87.0" y="758" type="line"/>
      <point x="287.0" y="758" type="line"/>
      <point x="350.0" y="866" type="line"/>
    </contour>
  </outline>
</glyph>
<glyph name="Eacute.inv" format="2">
  <advance width="200"/>
  <unicode hex="00C9"/>
  <outline>
    <contour>
      <point x="100" y="0" type="move"/>
      <point x="46" y="94" type="line"/>
      <point x="46" y="866" type="line"/>
      <point x="154" y="866" type="line"/>
      <point x="154" y="94" type="line"/>
    </contour>
    <contour>
      <point x="-62" y="281" type="move"/>
      <point x="-400" y="866" type="line"/>
      <point x="-275" y="866" type="line"/>
      <point x="-62" y="498" type="line"/>
    </contour>
    <contour>
      <point x="262" y="281" type="move"/>
      <point x="262" y="498" type="line"/>
      <point x="475" y="866" type="line"/>
      <point x="600" y="866" type="line"/>
    </contour>
  </outline>
</glyph>
<glyph name="Ecircumflex" format="2">
  <advance width="1000"/>
  <unicode hex="00CA"/>
  <outline>
    <contour>
      <point x="500" y="0" type="line"/>
      <point x="446" y="94" type="line"/>
      <point x="446" y="866" type="line"/>
      <point x="554" y="866" type="line"/>
      <point x="554" y="94" type="line"/>
    </contour>
    <contour>
      <point x="338" y="281" type="line"/>
      <point x="0" y="866" type="line"/>
      <point x="338" y="866" type="line"/>
      <point x="338" y="758" type="line"/>
      <point x="188" y="758" type="line"/>
      <point x="338" y="498" type="line"/>
    </contour>
    <contour>
      <point x="662" y="281" type="line"/>
      <point x="662" y="498" type="line"/>
      <point x="812" y="758" type="line"/>
      <point x="662" y="758" type="line"/>
      <point x="662" y="866" type="line"/>
      <point x="1000" y="866" type="line"/>
    </contour>
  </outline>
</glyph>
<glyph name="Yacute" format="2">
  <advance width="1000"/>
  <unicode hex="00DD"/>
  <outline>
    <contour>
      <point x="500" y="866" type="line"/>
      <point x="321" y="556" type="line"/>
      <point x="446" y="556" type="line"/>
      <point x="446" y="108" type="line"/>
      <point x="63" y="108" type="line"/>
      <point x="0" y="0" type="line"/>
      <point x="1000" y="0" type="line"/>
      <point x="937" y="108" type="line"/>
      <point x="554" y="108" type="line"/>
      <point x="554" y="556" type="line"/>
      <point x="750" y="217" type="line"/>
      <point x="875" y="217" type="line"/>
    </contour>
    <contour>
      <point x="258" y="448" type="line"/>
      <point x="125" y="217" type="line"/>
      <point x="250" y="217" type="line"/>
      <point x="383" y="448" type="line"/>
    </contour>
  </outline>
</glyph>
<glyph name="Yacute.inv" format="2">
  <advance width="200"/>
  <unicode hex="00DD"/>
  <outline>
    <contour>
      <point x="100" y="866" type="line"/>
      <point x="279" y="556" type="line"/>
      <point x="154" y="556" type="line"/>
      <point x="154" y="108" type="line"/>
      <point x="537" y="108" type="line"/>
      <point x="600" y="0" type="line"/>
      <point x="-400" y="0" type="line"/>
      <point x="-337" y="108" type="line"/>
      <point x="46" y="108" type="line"/>
      <point x="46" y="556" type="line"/>
      <point x="-150" y="217" type="line"/>
      <point x="-275" y="217" type="line"/>
    </contour>
    <contour>
      <point x="342" y="448" type="line"/>
      <point x="475" y="217" type="line"/>
      <point x="350" y="217" type="line"/>
      <point x="217" y="448" type="line"/>
    </contour>
  </outline>
</glyph>
<glyph name="eacute" format="2">
  <advance width="1000"/>
  <unicode hex="00E9"/>
  <outline>
    <contour>
      <point x="500" y="866" type="move"/>
      <point x="446" y="772" type="line"/>
      <point x="446" y="0" type="line"/>
      <point x="554" y="0" type="line"/>
      <point x="554" y="772" type="line"/>
    </contour>
    <contour>
      <point x="338" y="585" type="move"/>
      <point x="0" y="0" type="line"/>
      <point x="125" y="0" type="line"/>
      <point x="338" y="368" type="line"/>
    </contour>
    <contour>
      <point x="662" y="585" type="move"/>
      <point x="662" y="368" type="line"/>
      <point x="875" y="0" type="line"/>
      <point x="1000" y="0" type="line"/>
    </contour>
  </outline>
</glyph>
<glyph name="eacute.inv" format="2">
  <advance width="200"/>
  <unicode hex="00E9"/>
  <outline>
    <contour>
      <point x="100" y="866" type="line"/>
      <point x="46" y="772" type="line"/>
      <point x="46" y="0" type="line"/>
      <point x="154" y="0" type="line"/>
      <point x="154" y="772" type="line"/>
    </contour>
    <contour>
      <point x="-62" y="585" type="line"/>
      <point x="-400" y="0" type="line"/>
      <point x="-275" y="0" type="line"/>
      <point x="-62" y="368" type="line"/>
    </contour>
    <contour>
      <point x="262" y="585" type="line"/>
      <point x="262" y="368" type="line"/>
      <point x="475" y="0" type="line"/>
      <point x="600" y="0" type="line"/>
    </contour>
  </outline>
</glyph>
<glyph name="ecircumflex.inv" format="2">
  <advance width="200"/>
  <unicode hex="00EA"/>
  <outline>
    <contour>
      <point x="100" y="866" type="line"/>
      <point x="46" y="772" type="line"/>
      <point x="46" y="0" type="line"/>
      <point x="154" y="0" type="line"/>
      <point x="154" y="772" type="line"/>
    </contour>
    <contour>
      <point x="-62" y="585" type="line"/>
      <point x="-400" y="0" type="line"/>
      <point x="-62" y="0" type="line"/>
      <point x="-62" y="108" type="line"/>
      <point x="-212" y="108" type="line"/>
      <point x="-62" y="368" type="line"/>
    </contour>
    <contour>
      <point x="262" y="585" type="line"/>
      <point x="262" y="368" type="line"/>
      <point x="412" y="108" type="line"/>
      <point x="262" y="108" type="line"/>
      <point x="262" y="0" type="line"/>
      <point x="600" y="0" type="line"/>
    </contour>
  </outline>
</glyph>
